<?xml version="1.0" standalone="no"?>
<!DOCTYPE svg PUBLIC "-//W3C//DTD SVG 1.0//EN" "http://www.w3.org/TR/2001/REC-SVG-20010904/DTD/svg10.dtd">
<svg xmlns="http://www.w3.org/2000/svg" xmlns:xlink="http://www.w3.org/1999/xlink" id="body_1" width="24" height="7">

<g transform="matrix(0.09022556 0 0 0.09022556 -0 0.20676702)">
    <path d="M107.487 29.2599L107.487 57.9067L101.725 57.9067L101.725 45.4498L89.4707 45.4498L89.4707 57.9067L83.7494 57.9067L83.7494 29.2599L89.4707 29.2599L89.4707 40.8647L101.725 40.8647L101.725 29.2599L107.487 29.2599zM123.063 35.1434C 125.255 35.1434 127.216 35.6033 128.947 36.523C 130.705 37.4428 132.085 38.7818 133.086 40.5401C 134.087 42.2713 134.587 44.3137 134.587 46.6671C 134.587 49.0205 134.087 51.0629 133.086 52.7941C 132.085 54.5254 130.705 55.8644 128.947 56.8112C 127.216 57.7309 125.255 58.1908 123.063 58.1908C 120.872 58.1908 118.898 57.7309 117.139 56.8112C 115.408 55.8644 114.042 54.5254 113.041 52.7941C 112.04 51.0629 111.54 49.0205 111.54 46.6671C 111.54 44.3137 112.04 42.2713 113.041 40.5401C 114.042 38.7818 115.408 37.4428 117.139 36.523C 118.898 35.6033 120.872 35.1434 123.063 35.1434zM123.063 40.0938C 121.467 40.0938 120.115 40.6618 119.006 41.798C 117.897 42.907 117.342 44.5301 117.342 46.6671C 117.342 48.8041 117.897 50.4407 119.006 51.5768C 120.115 52.6859 121.467 53.2405 123.063 53.2405C 124.659 53.2405 126.012 52.6859 127.121 51.5768C 128.23 50.4407 128.785 48.8041 128.785 46.6671C 128.785 44.5301 128.23 42.907 127.121 41.798C 126.012 40.6618 124.659 40.0938 123.063 40.0938zM149.018 35.1434C 151.209 35.1434 153.17 35.6033 154.901 36.523C 156.66 37.4428 158.039 38.7818 159.04 40.5401C 160.041 42.2713 160.542 44.3137 160.542 46.6671C 160.542 49.0205 160.041 51.0629 159.04 52.7941C 158.039 54.5254 156.66 55.8644 154.901 56.8112C 153.17 57.7309 151.209 58.1908 149.018 58.1908C 146.827 58.1908 144.852 57.7309 143.094 56.8112C 141.363 55.8644 139.996 54.5254 138.996 52.7941C 137.995 51.0629 137.494 49.0205 137.494 46.6671C 137.494 44.3137 137.995 42.2713 138.996 40.5401C 139.996 38.7818 141.363 37.4428 143.094 36.523C 144.852 35.6033 146.827 35.1434 149.018 35.1434zM149.018 40.0938C 147.422 40.0938 146.069 40.6618 144.96 41.798C 143.851 42.907 143.297 44.5301 143.297 46.6671C 143.297 48.8041 143.851 50.4407 144.96 51.5768C 146.069 52.6859 147.422 53.2405 149.018 53.2405C 150.614 53.2405 151.966 52.6859 153.076 51.5768C 154.185 50.4407 154.739 48.8041 154.739 46.6671C 154.739 44.5301 154.185 42.907 153.076 41.798C 151.966 40.6618 150.614 40.0938 149.018 40.0938z" stroke="none" fill="#FFFFFF" fill-rule="nonzero" />
    <path d="M180.572 43.137C 182.303 43.4886 183.683 44.3137 184.711 45.6121C 185.766 46.8835 186.293 48.3848 186.293 50.1161C 186.293 52.5236 185.482 54.4307 183.859 55.8373C 182.263 57.2169 179.936 57.9067 176.88 57.9067L176.88 57.9067L164.585 57.9067L164.585 29.2599L176.636 29.2599C 179.531 29.2599 181.749 29.8956 183.291 31.167C 184.86 32.4384 185.644 34.2237 185.644 36.523C 185.644 38.3084 185.171 39.7691 184.224 40.9053C 183.304 42.0414 182.087 42.7853 180.572 43.137zM170.306 41.2705L175.459 41.2705C 176.893 41.2705 177.975 40.9594 178.706 40.3372C 179.463 39.688 179.842 38.7683 179.842 37.578C 179.842 36.3878 179.476 35.4681 178.746 34.8188C 178.016 34.1696 176.893 33.845 175.378 33.845L175.378 33.845L170.306 33.845L170.306 41.2705zM175.743 53.2405C 177.258 53.2405 178.421 52.9159 179.233 52.2666C 180.045 51.5904 180.45 50.6165 180.45 49.3451C 180.45 48.0738 180.031 47.0999 179.192 46.4237C 178.381 45.7203 177.218 45.3687 175.703 45.3687L175.703 45.3687L170.306 45.3687L170.306 53.2405L175.743 53.2405zM199.107 35.1434C 201 35.1434 202.623 35.5898 203.976 36.4825C 205.329 37.3751 206.289 38.5789 206.857 40.0938L206.857 40.0938L206.857 35.4275L212.538 35.4275L212.538 57.9067L206.857 57.9067L206.857 53.1999C 206.289 54.7147 205.329 55.932 203.976 56.8518C 202.623 57.7444 201 58.1908 199.107 58.1908C 197.213 58.1908 195.509 57.7309 193.994 56.8112C 192.479 55.8915 191.289 54.566 190.423 52.8347C 189.585 51.0764 189.166 49.0205 189.166 46.6671C 189.166 44.3137 189.585 42.2713 190.423 40.5401C 191.289 38.7818 192.479 37.4428 193.994 36.523C 195.509 35.6033 197.213 35.1434 199.107 35.1434zM200.892 40.1343C 199.107 40.1343 197.673 40.7159 196.591 41.8791C 195.509 43.0423 194.968 44.6383 194.968 46.6671C 194.968 48.6959 195.509 50.2919 196.591 51.4551C 197.673 52.5912 199.107 53.1593 200.892 53.1593C 202.623 53.1593 204.044 52.5777 205.153 51.4145C 206.289 50.2243 206.857 48.6418 206.857 46.6671C 206.857 44.6653 206.289 43.0829 205.153 41.9197C 204.044 40.7294 202.623 40.1343 200.892 40.1343zM231.113 35.1029C 233.709 35.1029 235.779 35.955 237.321 37.6592C 238.863 39.3634 239.634 41.7574 239.634 44.8412L239.634 44.8412L239.634 57.9067L233.953 57.9067L233.953 45.4904C 233.953 43.705 233.493 42.3254 232.573 41.3516C 231.654 40.3507 230.396 39.8503 228.8 39.8503C 227.177 39.8503 225.878 40.3778 224.904 41.4328C 223.931 42.4878 223.444 44.0026 223.444 45.9773L223.444 45.9773L223.444 57.9067L217.722 57.9067L217.722 35.4275L223.444 35.4275L223.444 39.9314C 224.039 38.4166 225.013 37.2399 226.365 36.4013C 227.745 35.5357 229.327 35.1029 231.113 35.1029zM257.814 57.9067L250.389 48.0873L250.389 57.9067L244.668 57.9067L244.668 27.8803L250.389 27.8803L250.389 44.76L257.774 35.4275L264.55 35.4275L255.096 46.6265L264.793 57.9067L257.814 57.9067z" stroke="none" fill="#5CE1E6" fill-rule="nonzero" />
    <path d="M36.0678 0C 28.9343 -8.50666E-08 21.9609 2.11534 16.0296 6.07852C 10.0983 10.0417 5.47539 15.6747 2.7455 22.2652C 0.0156126 28.8558 -0.698651 36.1078 0.693031 43.1043C 2.08471 50.1007 5.51984 56.5274 10.564 61.5716C 15.6082 66.6157 22.0348 70.0509 29.0313 71.4426C 36.0278 72.8342 43.2798 72.12 49.8703 69.3901C 56.4609 66.6602 62.0939 62.0373 66.0571 56.106C 70.0202 50.1747 72.1356 43.2013 72.1356 36.0678L72.1356 36.0678L54.1017 36.0678C 54.1017 39.6346 53.044 43.1212 51.0624 46.0869C 49.0808 49.0526 46.2643 51.364 42.9691 52.7289C 39.6738 54.0939 36.0478 54.451 32.5496 53.7552C 29.0513 53.0593 25.838 51.3418 23.3159 48.8197C 20.7938 46.2976 19.0763 43.0843 18.3804 39.586C 17.6846 36.0878 18.0417 32.4618 19.4066 29.1665C 20.7716 25.8713 23.083 23.0547 26.0487 21.0732C 29.0144 19.0916 32.501 18.0339 36.0678 18.0339L36.0678 18.0339L36.0678 0z" stroke="none" fill="#FFFFFF" fill-rule="nonzero" />
    <path d="M36.0678 0C 31.3313 -5.64821E-08 26.6412 0.932921 22.2652 2.7455C 17.8893 4.55807 13.9132 7.21481 10.564 10.564C 7.21481 13.9132 4.55807 17.8893 2.7455 22.2653C 0.93292 26.6412 -7.1519E-07 31.3313 0 36.0678L0 36.0678L18.0339 36.0678C 18.0339 33.6996 18.5004 31.3545 19.4066 29.1665C 20.3129 26.9785 21.6413 24.9905 23.3159 23.3159C 24.9905 21.6413 26.9785 20.3129 29.1665 19.4066C 31.3545 18.5004 33.6995 18.0339 36.0678 18.0339L36.0678 18.0339L36.0678 0z" stroke="none" fill="#5CE1E6" fill-rule="nonzero" />
    <path d="M47.338997 36.0678C 47.338997 39.180252 46.23858 41.836903 44.037743 44.037743C 41.836903 46.23858 39.180252 47.338997 36.0678 47.338997C 32.955345 47.338997 30.298695 46.23858 28.097857 44.037743C 25.897018 41.836903 24.7966 39.180252 24.796598 36.0678C 24.7966 32.955345 25.897018 30.298695 28.097857 28.097857C 30.298695 25.897018 32.955345 24.7966 36.0678 24.796598C 39.180252 24.7966 41.836903 25.897018 44.037743 28.097857C 46.23858 30.298695 47.338997 32.955345 47.338997 36.0678C 47.338997 36.19896 47.336708 36.33008 47.332134 36.46116" stroke="none" fill="#5CE1E6" fill-rule="nonzero" />
    <path d="M47.339 36.0678C 47.339 34.5877 47.0475 33.122 46.481 31.7545C 45.9146 30.387 45.0844 29.1445 44.0377 28.0979C 42.9911 27.0513 41.7486 26.221 40.3811 25.6546C 39.0136 25.0882 37.548 24.7966 36.0678 24.7966C 34.5876 24.7966 33.122 25.0882 31.7545 25.6546C 30.387 26.221 29.1445 27.0513 28.0979 28.0979C 27.0512 29.1445 26.221 30.387 25.6546 31.7545C 25.0882 33.122 24.7966 34.5877 24.7966 36.0678L24.7966 36.0678L36.0678 36.0678L47.339 36.0678z" stroke="none" fill="#FFFFFF" fill-rule="nonzero" />
</g>
</svg>